<svg xmlns="http://www.w3.org/2000/svg" viewBox="0 0 100 100" fill="none">
  <!-- Ícone simplificado: Ondas → Grade -->
  <!-- Ondas (Caos) em Navy -->
  <path d="M 10 30 Q 20 20, 30 30 T 50 30" stroke="#1A365D" stroke-width="4" fill="none" stroke-linecap="round"/>
  <path d="M 10 45 Q 20 35, 30 45 T 50 45" stroke="#1A365D" stroke-width="4" fill="none" stroke-linecap="round"/>
  <path d="M 10 60 Q 20 50, 30 60 T 50 60" stroke="#1A365D" stroke-width="4" fill="none" stroke-linecap="round"/>
  
  <!-- Grade (Ordem) em Ciano -->
  <rect x="55" y="25" width="10" height="10" fill="#00A3FF"/>
  <rect x="68" y="25" width="10" height="10" fill="#00A3FF"/>
  <rect x="81" y="25" width="10" height="10" fill="#00A3FF"/>
  
  <rect x="55" y="40" width="10" height="10" fill="#00A3FF"/>
  <rect x="68" y="40" width="10" height="10" fill="#00A3FF"/>
  <rect x="81" y="40" width="10" height="10" fill="#00A3FF"/>
  
  <rect x="55" y="55" width="10" height="10" fill="#00A3FF"/>
  <rect x="68" y="55" width="10" height="10" fill="#00A3FF"/>
  <rect x="81" y="55" width="10" height="10" fill="#00A3FF"/>
</svg>
